<svg width="68" height="28" viewBox="0 0 68 28" fill="none" xmlns="http://www.w3.org/2000/svg">
<path d="M15.4 14.1C15.4 11.7 15.1467 9.78 14.64 8.34C14.1333 6.9 13.4667 5.82 12.64 5.1C11.8133 4.38 10.9067 3.9 9.92 3.66C8.94667 3.42 7.98667 3.3 7.04 3.3H3.8V25.22H7.08C8.06667 25.22 9.04667 25.0667 10.02 24.76C11.0067 24.44 11.9067 23.88 12.72 23.08C13.5333 22.2667 14.18 21.14 14.66 19.7C15.1533 18.2467 15.4 16.38 15.4 14.1ZM19.1 14.1C19.1 16.3933 18.8533 18.3533 18.36 19.98C17.88 21.5933 17.22 22.9267 16.38 23.98C15.54 25.0333 14.58 25.8533 13.5 26.44C12.4333 27.0133 11.3067 27.42 10.12 27.66C8.94667 27.8867 7.79333 28 6.66 28H0.34V0.459998H6.22C7.83333 0.459998 9.4 0.639999 10.92 1C12.4533 1.36 13.8333 2.02667 15.06 3C16.3 3.96 17.28 5.33333 18 7.12C18.7333 8.90667 19.1 11.2333 19.1 14.1ZM44.8044 0.459998L40.6044 28H36.0444L32.8844 7.22L29.7044 28H25.0444L21.1644 0.459998H24.6444L27.5844 24.18L30.8844 3.66H35.1444L38.2844 24.18L41.5844 0.459998H44.8044ZM66.1888 0.459998L67.7488 28H64.4088L63.5488 13.62C63.5088 12.6467 63.4688 11.66 63.4288 10.66C63.3888 9.66 63.3621 8.7 63.3488 7.78C63.3354 6.86 63.3288 6.04 63.3288 5.32C63.3288 4.6 63.3288 4.04 63.3288 3.64L58.6888 23.06H55.2088L50.2288 3.64C50.2421 4.02667 50.2554 4.6 50.2688 5.36C50.2821 6.10666 50.2888 6.95333 50.2888 7.9C50.3021 8.84667 50.2954 9.82 50.2688 10.82C50.2554 11.8067 50.2288 12.7267 50.1888 13.58L49.4488 28H46.1888L47.7488 0.459998H52.5888L57.0488 19.32L61.3088 0.459998H66.1888Z" fill="black"/>
</svg>
