<svg width="67" height="67" viewBox="0 0 67 67" fill="none" xmlns="http://www.w3.org/2000/svg">
<path d="M55.8333 23.0312V50.25C55.8333 58.625 50.8362 61.4166 44.6666 61.4166H22.3333C16.1637 61.4166 11.1666 58.625 11.1666 50.25V23.0312C11.1666 13.9583 16.1637 11.8646 22.3333 11.8646C22.3333 13.5954 23.0312 15.1587 24.1758 16.3033C25.3204 17.4479 26.8837 18.1458 28.6145 18.1458H38.3854C41.847 18.1458 44.6666 15.3262 44.6666 11.8646C50.8362 11.8646 55.8333 13.9583 55.8333 23.0312Z" stroke="white" stroke-width="1.5" stroke-linecap="round" stroke-linejoin="round"/>
<path d="M22.3334 36.2916H33.5M22.3334 47.4583H44.6667M44.6667 11.8646C44.6667 15.3262 41.8471 18.1458 38.3855 18.1458H28.6146C26.8838 18.1458 25.3205 17.4479 24.1759 16.3033C23.0313 15.1587 22.3334 13.5954 22.3334 11.8646C22.3334 8.4029 25.153 5.58331 28.6146 5.58331H38.3855C40.1163 5.58331 41.6796 6.28123 42.8242 7.42581C43.9688 8.5704 44.6667 10.1337 44.6667 11.8646Z" stroke="white" stroke-width="1.5" stroke-linecap="round" stroke-linejoin="round"/>
</svg>
