<svg width="94" height="22" viewBox="0 0 94 22" fill="none" xmlns="http://www.w3.org/2000/svg">
<path d="M27.2095 5.136C27.2509 5.21867 27.2922 5.30133 27.3335 5.384C27.3749 5.446 27.4059 5.51833 27.4265 5.601H26.2795C26.3209 5.68367 26.3622 5.787 26.4035 5.911C26.4449 6.01433 26.4862 6.11767 26.5275 6.221H21.6605L21.8465 6.841H24.3575L24.4505 7.306H24.1095C24.1302 7.34733 24.1405 7.399 24.1405 7.461C24.1405 7.523 24.1509 7.57467 24.1715 7.616H23.3345L23.3655 7.926H24.0165C24.0165 8.00867 24.0165 8.09133 24.0165 8.174C24.0372 8.236 24.0475 8.30833 24.0475 8.391H25.1945C25.2152 8.47367 25.2255 8.546 25.2255 8.608C25.2255 8.67 25.2255 8.74233 25.2255 8.825V8.856H22.3115C22.3115 8.95933 22.3115 9.06267 22.3115 9.166C22.3322 9.26933 22.3425 9.37267 22.3425 9.476H22.9935C22.9935 9.57933 22.9935 9.68267 22.9935 9.786C23.0142 9.88933 23.0245 9.99267 23.0245 10.096H24.1405V10.251H23.7065V10.871H23.8305V11.336H25.6595V11.956H23.9235V12.266H23.7375C23.7375 12.3073 23.7375 12.359 23.7375 12.421C23.7375 12.483 23.7272 12.5347 23.7065 12.576H23.1485V13.196H23.2105C23.1899 13.258 23.1795 13.3407 23.1795 13.444V13.506H24.3265C24.3265 13.5887 24.3162 13.6713 24.2955 13.754C24.2955 13.816 24.2955 13.8883 24.2955 13.971H24.7605C24.7605 14.0743 24.7502 14.1777 24.7295 14.281C24.7295 14.3843 24.7192 14.4877 24.6985 14.591H24.0165C23.9959 14.6323 23.9855 14.684 23.9855 14.746C23.9855 14.808 23.9752 14.8597 23.9545 14.901H20.2345C20.2345 14.9837 20.2139 15.087 20.1725 15.211H23.4275C23.3862 15.335 23.3655 15.4383 23.3655 15.521H23.8305C23.8099 15.6037 23.7892 15.6863 23.7685 15.769C23.7685 15.831 23.7479 15.9033 23.7065 15.986L23.6135 16.296H22.7145L22.6525 16.451H24.1095C24.0682 16.5337 24.0475 16.5853 24.0475 16.606H23.1175L23.0555 16.761H23.0245C22.9832 16.8643 22.9419 16.9677 22.9005 17.071C22.8592 17.1743 22.8075 17.2777 22.7455 17.381H22.2805L21.9395 18.001H22.4665L22.2805 18.311H22.3115C22.2702 18.3523 22.2289 18.404 22.1875 18.466C22.1462 18.528 22.1049 18.5797 22.0635 18.621H21.8465C21.7845 18.683 21.7432 18.7347 21.7225 18.776C21.6605 18.8587 21.5985 18.9413 21.5365 19.024C21.4745 19.086 21.4022 19.1583 21.3195 19.241H21.2265C21.1232 19.3443 21.0095 19.4477 20.8855 19.551C20.7822 19.6543 20.6685 19.7577 20.5445 19.861H20.8235L20.1725 20.326H20.2035C20.0382 20.4293 19.8625 20.5327 19.6765 20.636C19.4905 20.7393 19.2942 20.8427 19.0875 20.946H19.0565C18.8499 21.0493 18.5915 21.1527 18.2815 21.256H18.3125C17.8992 21.4007 17.4652 21.5247 17.0105 21.628C16.5559 21.7313 16.0909 21.814 15.6155 21.876H16.2665C15.9359 21.9173 15.5949 21.9483 15.2435 21.969C14.8922 21.9897 14.5305 22 14.1585 22H5.07552C4.88952 22 4.74485 21.9587 4.64152 21.876H3.99052C3.78385 21.752 3.65985 21.5453 3.61852 21.256H3.58752V20.946H3.64952V20.326H3.58752V19.861H3.33952V19.241H3.43252V18.776H3.40152V18.621H3.64952V18.311H3.61852V18.001H3.06052V17.381H3.55652V16.761H3.58752V16.606H4.51752V16.451H3.09152V16.296H3.99052V15.521H3.55652V15.211H3.52552V14.901H4.33152V14.591H0.766519V13.971H0.642519V13.506H1.04552V13.196H2.31652V12.576H3.12252V12.266H3.58752V11.956H4.08352V11.336H4.79652V10.871H5.47852V10.251H3.40152V10.096H2.71952V9.476H1.35552V8.856H4.88952V8.391H2.16152V7.926H3.64952V7.616H3.58752V7.306H3.33952V6.841H2.00652V6.221H6.84252V5.601H7.98952V5.136H2.40952V4.516H6.06752V4.361H3.18452V4.206H9.04352V3.586H8.29952V3.431H0.921519V2.811H1.82052V2.346H3.74252V2.191H4.76552V1.881H4.20752V1.726H3.55652V1.416H3.61852V1.137C3.61852 1.09567 3.61852 1.06467 3.61852 1.044C3.63919 1.00267 3.64952 0.971666 3.64952 0.950999H3.77352C3.87685 0.516999 4.15585 0.299999 4.61052 0.299999H13.5385C15.1299 0.299999 16.5765 0.516999 17.8785 0.950999H17.7545C18.1265 1.075 18.5089 1.23 18.9015 1.416H18.8395C18.9429 1.45733 19.0462 1.509 19.1495 1.571C19.2735 1.61233 19.3769 1.664 19.4595 1.726H20.1105L20.3895 1.881H20.9165C21.0199 1.92233 21.1025 1.974 21.1645 2.036C21.2472 2.098 21.3299 2.14967 21.4125 2.191H20.3895C20.4309 2.21167 20.4722 2.23233 20.5135 2.253C20.5549 2.27367 20.5859 2.30467 20.6065 2.346H18.6845L19.2735 2.811H18.3435C18.5709 2.997 18.7775 3.20367 18.9635 3.431H26.3415C26.3622 3.45167 26.3829 3.47233 26.4035 3.493C26.4242 3.51367 26.4449 3.54467 26.4655 3.586H27.2405C27.3232 3.66867 27.4059 3.772 27.4885 3.896C27.5712 3.99933 27.6435 4.10267 27.7055 4.206H21.8465C21.8672 4.22667 21.8879 4.24733 21.9085 4.268C21.9292 4.28867 21.9499 4.31967 21.9705 4.361H24.8535L24.9465 4.516H21.2885C21.4332 4.72267 21.5469 4.92933 21.6295 5.136H27.2095ZM16.2665 7.306C16.1425 7.12 15.9875 6.965 15.8015 6.841H13.2905C12.8359 6.51033 12.2779 6.345 11.6165 6.345H9.75652V6.841H11.0895V7.306H11.3375V7.616H11.3995V7.926H9.91152V8.391H12.6395V8.856H9.10552V9.476H10.4695V10.096H11.1515V10.251H13.2285V10.871H12.5465V11.336H11.8335V11.956H11.3375V12.266H10.8725V12.576H10.0665V13.196H8.79552V13.506H8.39252V13.971H8.51652V14.591H12.0815V14.901H11.2755V15.211H11.3065V15.521H11.7405V15.955H13.7555C14.3549 15.955 14.8612 15.8103 15.2745 15.521H14.7785C14.8405 15.4797 14.9025 15.4383 14.9645 15.397C15.0265 15.335 15.0782 15.273 15.1195 15.211H11.8955C11.9369 15.1697 11.9782 15.1283 12.0195 15.087C12.0609 15.025 12.0919 14.963 12.1125 14.901H15.8325C15.8739 14.8597 15.9049 14.8183 15.9255 14.777C15.9462 14.715 15.9669 14.653 15.9875 14.591H16.7005C16.7419 14.4877 16.7729 14.3843 16.7935 14.281C16.8142 14.1777 16.8349 14.0743 16.8555 13.971H16.3905C16.4112 13.8883 16.4215 13.816 16.4215 13.754C16.4215 13.6713 16.4319 13.5887 16.4525 13.506H15.3055V13.444C15.3055 13.4027 15.3055 13.3613 15.3055 13.32C15.3262 13.2787 15.3365 13.2373 15.3365 13.196H15.2745C15.2745 13.0927 15.2745 12.9893 15.2745 12.886C15.2745 12.762 15.2849 12.6587 15.3055 12.576H15.8635V12.266H16.0495L16.0805 11.956H17.8165V11.336H15.9875V10.871H15.8635V10.251H16.2975V10.096H15.1505V9.476H14.4685C14.4685 9.37267 14.4685 9.26933 14.4685 9.166C14.4685 9.06267 14.4582 8.95933 14.4375 8.856H17.3515V8.825C17.3515 8.74233 17.3412 8.67 17.3205 8.608C17.3205 8.52533 17.3205 8.453 17.3205 8.391H16.1735C16.1529 8.30833 16.1322 8.236 16.1115 8.174C16.0909 8.09133 16.0702 8.00867 16.0495 7.926H15.3985C15.3779 7.864 15.3572 7.81233 15.3365 7.771C15.3159 7.709 15.2952 7.65733 15.2745 7.616H16.1115C16.0909 7.554 16.0599 7.50233 16.0185 7.461C15.9979 7.399 15.9669 7.34733 15.9255 7.306H16.2665ZM52.1149 9.166L52.0219 9.631H57.1369L57.0749 9.941H52.3629L52.3319 10.096H54.2849L54.1919 10.716H54.8429L54.7809 11.181H55.1529L55.0599 11.646H55.0909L55.0289 12.111H55.1529V12.266H55.0909L54.9979 12.886H54.9049L54.8119 13.506L54.7499 14.126H55.3389L55.3079 14.281H54.9669V14.436H55.5869V14.591H54.5949L54.5639 14.746H54.2229L54.1609 15.211H55.1839L55.0909 15.831H56.2689L56.2069 16.296H55.2769L55.2459 16.451H54.7809L54.6879 17.071H54.9359L54.9049 17.381H55.1839L55.1219 17.846H54.6569L54.5949 18.311H53.5719L53.5409 18.621H54.5949L54.5019 19.241H53.8199L53.7579 19.861H54.3779L54.3159 20.326H51.9289L51.8669 20.636H52.7659L52.7349 20.822V20.946H53.5719C53.5512 20.9873 53.5305 21.039 53.5099 21.101C53.5099 21.163 53.4892 21.2147 53.4479 21.256H53.1069C53.0035 21.442 52.8692 21.597 52.7039 21.721H52.9829C52.8589 21.8037 52.7659 21.8553 52.7039 21.876H52.9519C52.7865 21.9587 52.5799 22 52.3319 22H47.8989C47.7749 22 47.6612 21.9897 47.5579 21.969C47.4752 21.9277 47.3925 21.8967 47.3099 21.876H47.0619C46.9999 21.8553 46.9482 21.8347 46.9069 21.814C46.8655 21.7727 46.8242 21.7417 46.7829 21.721H46.5349C46.4522 21.6383 46.3799 21.5557 46.3179 21.473C46.2559 21.3903 46.2042 21.318 46.1629 21.256H46.5039C46.4832 21.2353 46.4729 21.2043 46.4729 21.163L46.3799 20.946H45.5429L45.4189 20.636H44.5199L44.3959 20.326H46.7829L46.5969 19.861H45.9459L45.6979 19.241H46.3799L46.1319 18.621H45.0779L44.9539 18.311H45.9459L45.7599 17.846H46.2249L46.0389 17.381H45.7599L45.6359 17.071H45.3879L45.1399 16.451H45.6049L45.5429 16.296H46.4729L46.2869 15.831H45.1089L44.8609 15.211H43.8379L43.6829 14.808L43.5279 15.211H43.4039L43.1559 15.831H45.0779L44.8919 16.296H43.3729L43.3109 16.451H43.5899L43.3419 17.071H43.8999L43.7759 17.381H42.2259L42.0399 17.846H42.8769L42.6909 18.311H41.6679L41.5439 18.621H42.0399L41.7919 19.241H41.8229L41.5749 19.861H39.5289L39.3429 20.326H42.5979L42.4739 20.636H41.7919L41.6679 20.946H41.6059L41.5129 21.163L41.4509 21.256H40.4899C40.4485 21.318 40.3969 21.3903 40.3349 21.473C40.2935 21.5557 40.2212 21.6383 40.1179 21.721H40.3039C40.2419 21.783 40.1592 21.8347 40.0559 21.876H40.8929C40.8102 21.8967 40.7172 21.9277 40.6139 21.969C40.5105 21.9897 40.3969 22 40.2729 22H35.8399C35.5919 22 35.3852 21.9587 35.2199 21.876H34.4139C34.3519 21.8553 34.2589 21.8037 34.1349 21.721H33.9179C33.7319 21.5763 33.5975 21.4213 33.5149 21.256H34.5069C34.4862 21.2147 34.4655 21.163 34.4449 21.101C34.4242 21.039 34.4035 20.9873 34.3829 20.946H34.4759L34.4449 20.822L34.4139 20.636H35.0959L35.0339 20.326H31.8099L31.7479 19.861H33.7629L33.7009 19.241H33.6699L33.5769 18.621H33.0809L33.0499 18.311H34.0419L33.9799 17.846H33.1739L33.1119 17.381H34.6619L34.5999 17.071H34.0419L33.9489 16.451H33.6699L33.6389 16.296H35.1579L35.0959 15.831H33.1739L33.0809 15.211H33.2049L33.1119 14.746H33.4529V14.591H34.4449L34.4139 14.436H33.7629L33.7319 14.281H34.0729V14.126H33.4529L33.4219 13.816H33.3909L33.3599 13.506L33.2669 12.886H33.3599L33.2669 12.266H33.3289L33.2979 12.111H33.1739L33.1119 11.646H33.0809L33.0189 11.181H32.6469L32.5849 10.716H31.9339L31.8409 10.096H29.8879V9.941H34.5999L34.5689 9.631H32.7089L32.6469 9.166H30.6939L30.6629 8.856H33.4839L33.3909 8.236H32.6469V8.081H33.0809L33.0499 7.926H33.7009L33.6389 7.461H32.5849L32.5539 7.306H30.1359L30.0739 6.686H32.7709L32.6779 6.066H31.9959L31.9649 5.756H32.2439L32.1819 5.291H32.2749L32.2439 5.136H31.2829L31.2519 4.826H31.9029L31.8409 4.361H31.9029L31.8409 3.896H32.3679L32.3059 3.586H30.6319L30.6009 3.276H31.9339L31.9029 2.966H31.1279L31.0969 2.656H32.0579L31.9959 2.191H31.6859L31.5929 1.571H31.9339L31.9029 1.416L31.8409 1.075V0.950999H31.3759C31.4172 0.516999 31.6445 0.299999 32.0579 0.299999H37.8239C38.4645 0.299999 38.8262 0.516999 38.9089 0.950999H39.3739C39.3945 0.992332 39.4049 1.05433 39.4049 1.137L39.4359 1.416L39.4669 1.571H39.1569L39.2189 2.191H39.5289L39.5909 2.656H38.5989L38.6609 2.966H39.4049L39.4359 3.276H38.1029L38.1339 3.586H39.8079L39.8699 3.896H39.3429L39.3739 4.361H39.3429L39.3739 4.826H38.6919L38.7539 5.136H39.6839L39.7149 5.291H39.6219L39.6839 5.756H39.4049L39.4359 6.066H40.1179L40.2109 6.686H37.4829L37.5449 7.306H39.9629L39.9939 7.461H41.0479L41.1099 7.926H40.4589V8.081H40.0249L40.0559 8.236H40.7069L40.7689 8.081H41.0789L41.1409 7.926H42.4429L42.5979 7.461H41.1719L41.2029 7.306H43.5899L43.8069 6.686H41.2959L41.4819 6.066H41.2029V6.004L41.2959 5.756H41.8849C41.9262 5.67333 41.9675 5.59067 42.0089 5.508C42.0709 5.42533 42.1432 5.353 42.2259 5.291H42.0399C42.1432 5.20833 42.2569 5.15667 42.3809 5.136H42.6599C42.7219 5.11533 42.8149 5.105 42.9389 5.105H46.1009C46.2249 5.105 46.3075 5.11533 46.3489 5.136H46.0699C46.1525 5.15667 46.2145 5.17733 46.2559 5.198C46.3179 5.21867 46.3695 5.24967 46.4109 5.291H46.5969C46.7002 5.353 46.7725 5.42533 46.8139 5.508C46.8759 5.59067 46.9172 5.67333 46.9379 5.756H46.3799C46.4419 5.83867 46.4729 5.92133 46.4729 6.004L46.5039 6.066H46.8139L46.9999 6.686H48.2089L48.3019 6.066H48.1159L48.1469 5.756H49.6039L49.6349 5.291H48.2709L48.3019 5.136H48.0539L48.1159 4.826H48.6429L48.7049 4.361H48.5189L48.5809 3.896H49.0149L49.0459 3.586H47.1549L47.1859 3.276H47.7439L47.7749 2.966H48.8289L48.8599 2.656H48.8289L48.8909 2.191L48.9529 1.571H48.3329L48.3639 1.416H49.1079L49.1699 1.137V0.950999H49.7589C49.8415 0.516999 50.2032 0.299999 50.8439 0.299999H56.6099C56.7752 0.299999 56.9199 0.361999 57.0439 0.486C57.1885 0.609999 57.2712 0.764999 57.2919 0.950999H56.7339V1.075L56.6719 1.416H55.8969L55.8659 1.571H56.5169L56.4239 2.191L56.3619 2.656H56.3929L56.3309 2.966H55.2769L55.2459 3.276H54.6879L54.6259 3.586H56.5479L56.5169 3.896H56.0829L56.0209 4.361H56.1759L56.1139 4.826H55.5869L55.5249 5.136H55.7729L55.7419 5.291H57.1059L57.0439 5.756H55.6179L55.5559 6.066H55.7419L55.6489 6.686H54.5329L54.4399 7.306H55.8039L55.7729 7.461H54.1919L54.1299 7.926H55.5869V8.081H55.4939L55.4629 8.236H55.5559L55.4629 8.856H55.9589L55.8969 9.166H52.1149ZM48.3949 7.306H47.3409L47.3719 7.461H48.3639L48.3949 7.306ZM47.6509 7.926L47.7129 8.081H47.4029L47.4649 8.236L47.6819 8.856H44.3339L44.4269 9.166H48.5499L48.5809 8.856H48.0849L48.1779 8.236H48.0849L48.1159 8.081H48.1779L48.2089 7.926H47.6509ZM42.0089 9.631H41.9159L41.9469 9.879L42.0089 9.631ZM49.7589 9.848L49.7899 9.631H49.6659L49.7589 9.848ZM93.7307 14.591H86.9417V14.901H92.4287V15.521H90.0107V15.676H87.5927V16.141H86.0117V16.606H85.3297V17.071H82.0747V17.691H86.9417V18.311H84.4617V18.621H86.6317V18.931H87.9337V19.396H88.3987V19.861H88.8327V20.171H88.8637V20.791H89.5147V20.946H89.1737V21.101H88.3987V21.256H86.6007L86.5077 21.566H85.5467C85.464 21.7107 85.371 21.814 85.2677 21.876H86.4147C86.3113 21.9587 86.1667 22 85.9807 22H80.3697C80.1837 22 80.039 21.9587 79.9357 21.876H78.7577C78.6543 21.814 78.5613 21.7107 78.4787 21.566H79.4087C79.3467 21.4627 79.3157 21.3593 79.3157 21.256H81.1137V21.101H81.8887V20.946H82.2297V20.791H81.5787V20.171H81.5477V19.861H81.1137V19.396H80.6487V18.931H79.3467V18.621H77.1767V18.311H79.6567V17.691H68.6827V18.311H73.1157V18.621H72.4647V19.396H72.5887V19.861H71.9997V20.171H71.7827V20.791H71.8757V20.946H74.1697V21.101H72.2477V21.256H73.3637C73.3637 21.3593 73.3327 21.4627 73.2707 21.566H71.5657C71.5037 21.7107 71.4003 21.814 71.2557 21.876H71.0697C70.9663 21.9587 70.8113 22 70.6047 22H64.9937C64.8077 22 64.663 21.9587 64.5597 21.876H64.7767C64.7147 21.8347 64.6527 21.7933 64.5907 21.752C64.5493 21.69 64.508 21.628 64.4667 21.566H66.2027C66.1407 21.4627 66.1097 21.3593 66.1097 21.256H64.9627V21.101H66.8847V20.946H64.5907V20.791H64.4977V20.171H64.7147V19.861H65.3037V19.396H65.1797V18.621H65.8307V18.311H61.3977V17.691H68.0937V17.071H61.9867V16.606H61.8317V16.141H64.3737V15.676H65.2727V15.521H63.2887V14.901H67.6287V14.591H70.6667L70.5737 14.436H65.0557V14.281H66.0787V14.126H65.3037V13.506H65.3347V13.196H66.0477V12.731H65.8927V12.111H65.0557V11.956H62.2657V11.646H64.6837V11.491H64.5907V11.181H65.9547V10.871H66.6987V10.406H61.8007V9.786H65.7067V9.476H62.2347V9.011H65.8307V8.701H65.3967V8.391H64.2187V8.236H64.8077V7.771H68.3727V7.306H67.8457V6.996H64.9007V6.841H64.7457V6.376H66.2027V5.756H62.9787V5.446H64.0947V5.291H64.4047V4.981H63.6917V4.516H66.4817V4.051H65.0557V3.431H67.4117V3.276H66.6677V2.656H69.4267V2.191H62.9477V1.726H69.8297V1.261H66.7917V0.950999H64.4667C64.4873 0.847666 64.5183 0.764999 64.5597 0.702999C64.6217 0.620332 64.6837 0.547999 64.7457 0.486H64.9007C65.0247 0.361999 65.2003 0.299999 65.4277 0.299999H70.3257C70.615 0.299999 70.8527 0.361999 71.0387 0.486H70.8837C71.0077 0.547999 71.111 0.620332 71.1937 0.702999C71.2763 0.785666 71.3383 0.868333 71.3797 0.950999H73.7357L73.8597 1.137L73.9217 1.261H76.9907L77.2697 1.726H70.3877L70.6667 2.191H77.1147L77.3937 2.656H74.6657L75.0377 3.276H75.7817L75.8747 3.431H73.5187L73.8907 4.051H75.2857L75.5647 4.516H72.8057L73.0847 4.981H73.7977L73.9837 5.291H73.6737L73.7667 5.446H72.6507L72.8367 5.756H76.0607L76.4327 6.376H74.9757L75.2547 6.841H75.4097L75.5027 6.996H77.7967L77.8897 6.841H77.0527L77.3317 6.376H78.3547L78.7267 5.756H78.1687L78.3547 5.446H75.8437L75.9367 5.291H79.0677L79.2537 4.981H79.0057L79.2847 4.516H81.1447L81.4237 4.051H81.5167L81.8887 3.431H80.4627L80.5557 3.276H83.8107L84.1827 2.656H83.9967L84.2757 2.191H79.5017L79.7807 1.726H84.3687L84.6477 1.261H81.2687L81.3307 1.137C81.372 1.05433 81.4133 0.992332 81.4547 0.950999H81.5167C81.5787 0.868333 81.651 0.785666 81.7337 0.702999C81.8163 0.620332 81.9093 0.547999 82.0127 0.486H81.9507C82.1367 0.361999 82.3743 0.299999 82.6637 0.299999H87.5617C87.7683 0.299999 87.944 0.361999 88.0887 0.486H88.1817C88.2437 0.547999 88.2953 0.620332 88.3367 0.702999C88.3987 0.764999 88.44 0.847666 88.4607 0.950999H88.3987V1.261H91.8087V1.726H87.2207V2.191H91.9947V2.656H92.1807V3.276H88.9257V3.431H90.3517V4.051H90.2587V4.516H88.3987V4.981H88.6467V5.291H85.5157V5.446H88.0267V5.756H88.5847V6.376H87.5927V6.841H88.3987V6.996H89.8557V7.306H86.6627V7.771H88.9567V8.236H88.3987V8.391H88.5227V8.701H88.9567V9.011H85.3607V9.476H88.8327V9.786H84.9267V10.406H89.8247V10.871H89.0807V11.181H87.7167V11.491H87.8097V11.646H85.3917V11.956H88.1817V12.111H89.0187V12.731H88.3057V13.196H87.7787V13.506H88.3987V14.126H88.6777V14.281H90.0107V14.436H93.7307V14.591ZM79.2227 6.996H78.4477L78.6337 7.306H79.0367L79.2227 6.996ZM75.5647 8.236L75.6577 8.391H76.8667L76.9597 8.577L77.0837 8.391H76.9597L77.0527 8.236H77.5797L77.8587 7.771H75.9057L76.1847 8.236H75.5647ZM80.1527 13.196H81.0207V12.731H80.4317L80.1527 13.196ZM72.5887 14.126H73.3637V14.281H72.3407V14.436H74.4487L74.3557 14.281H73.8597L73.7357 14.126H73.4567L73.0847 13.506H73.1467L72.9607 13.196H72.6197V13.506H72.5887V14.126ZM86.4457 14.591V14.436H82.7257V14.281H81.3927V14.126H81.1137V13.506H80.6177L80.2147 14.126H80.5247L80.4317 14.281H80.9277L80.8347 14.436H78.2927V14.591H74.9137V14.901H70.5737V15.521H72.5577V15.676H71.6587V16.141H69.1167V16.606H69.2717V17.071H78.0447V16.606H78.7267V16.141H76.1227C76.0607 16.2237 75.9987 16.3063 75.9367 16.389C75.8747 16.4717 75.792 16.544 75.6887 16.606H75.5957C75.4097 16.73 75.203 16.792 74.9757 16.792H72.8057C72.5577 16.792 72.3407 16.73 72.1547 16.606H72.2477C72.165 16.544 72.0823 16.4717 71.9997 16.389C71.9377 16.3063 71.8757 16.2237 71.8137 16.141H75.0067L74.9137 16.017L74.6967 15.676H73.5807L73.4877 15.521H75.6577L75.2547 14.901H78.8817L78.6957 14.591H86.4457ZM85.1437 15.521V14.901H81.0827L80.7107 15.521H78.5717L78.4787 15.676H79.5947L79.3777 16.017L79.2847 16.141H80.3077V15.676H82.7257V15.521H85.1437Z" fill="black"/>
</svg>
